<?xml version="1.0" encoding="UTF-8" standalone="no"?>
<!DOCTYPE svg PUBLIC "-//W3C//DTD SVG 1.1//EN" "http://www.w3.org/Graphics/SVG/1.1/DTD/svg11.dtd">
<svg width="100%" height="100%" viewBox="0 0 2000 2000" version="1.1" xmlns="http://www.w3.org/2000/svg" xmlns:xlink="http://www.w3.org/1999/xlink" xml:space="preserve" xmlns:serif="http://www.serif.com/" style="fill-rule:evenodd;clip-rule:evenodd;stroke-linejoin:round;stroke-miterlimit:2;">
    <g transform="matrix(1.5625,0,0,2.7585,0,14.9911)">
        <rect x="-8.018" y="-12.534" width="1288.02" height="743.12" style="fill:rgb(0,79,130);"/>
        <clipPath id="_clip1">
            <rect x="-8.018" y="-12.534" width="1288.02" height="743.12"/>
        </clipPath>
        <g clip-path="url(#_clip1)">
            <g transform="matrix(-2.82662,-0.346828,0.612304,-1.60109,1861.54,1520.81)">
                <path d="M521.765,590.669L538.7,600.447L528.923,617.382L548.478,617.382L548.478,636.937L528.923,636.937L538.7,653.872L521.765,663.649L511.988,646.714L502.21,663.649L485.275,653.872L495.053,636.937L475.498,636.937L475.498,617.382L495.053,617.382L485.275,600.447L502.21,590.669L511.988,607.605L521.765,590.669Z" style="fill:rgb(12,114,186);"/>
            </g>
            <g transform="matrix(-2.86113,0.239397,-0.422641,-1.62064,2582.29,1011.59)">
                <path d="M521.765,590.669L538.7,600.447L528.923,617.382L548.478,617.382L548.478,636.937L528.923,636.937L538.7,653.872L521.765,663.649L511.988,646.714L502.21,663.649L485.275,653.872L495.053,636.937L475.498,636.937L475.498,617.382L495.053,617.382L485.275,600.447L502.21,590.669L511.988,607.605L521.765,590.669Z" style="fill:rgb(12,114,186);"/>
            </g>
            <g transform="matrix(-2.86113,0.239397,-0.422641,-1.62064,2853.89,1314.33)">
                <path d="M521.765,590.669L538.7,600.447L528.923,617.382L548.478,617.382L548.478,636.937L528.923,636.937L538.7,653.872L521.765,663.649L511.988,646.714L502.21,663.649L485.275,653.872L495.053,636.937L475.498,636.937L475.498,617.382L495.053,617.382L485.275,600.447L502.21,590.669L511.988,607.605L521.765,590.669Z" style="fill:rgb(12,114,186);"/>
            </g>
            <g transform="matrix(-2.86113,0.239397,-0.422641,-1.62064,3031.45,1509.94)">
                <path d="M521.765,590.669L538.7,600.447L528.923,617.382L548.478,617.382L548.478,636.937L528.923,636.937L538.7,653.872L521.765,663.649L511.988,646.714L502.21,663.649L485.275,653.872L495.053,636.937L475.498,636.937L475.498,617.382L495.053,617.382L485.275,600.447L502.21,590.669L511.988,607.605L521.765,590.669Z" style="fill:rgb(12,114,186);"/>
            </g>
            <g transform="matrix(-2.86113,0.239397,-0.422641,-1.62064,1751.57,1509.99)">
                <path d="M521.765,590.669L538.7,600.447L528.923,617.382L548.478,617.382L548.478,636.937L528.923,636.937L538.7,653.872L521.765,663.649L511.988,646.714L502.21,663.649L485.275,653.872L495.053,636.937L475.498,636.937L475.498,617.382L495.053,617.382L485.275,600.447L502.21,590.669L511.988,607.605L521.765,590.669Z" style="fill:rgb(12,114,186);"/>
            </g>
            <g transform="matrix(-2.86113,0.239397,-0.422641,-1.62064,2636.82,1541.93)">
                <path d="M521.765,590.669L538.7,600.447L528.923,617.382L548.478,617.382L548.478,636.937L528.923,636.937L538.7,653.872L521.765,663.649L511.988,646.714L502.21,663.649L485.275,653.872L495.053,636.937L475.498,636.937L475.498,617.382L495.053,617.382L485.275,600.447L502.21,590.669L511.988,607.605L521.765,590.669Z" style="fill:rgb(12,114,186);"/>
            </g>
            <g transform="matrix(-3.4333,-0.421268,0.743723,-1.94473,1283.36,1566.71)">
                <path d="M521.765,590.669L538.7,600.447L528.923,617.382L548.478,617.382L548.478,636.937L528.923,636.937L538.7,653.872L521.765,663.649L511.988,646.714L502.21,663.649L485.275,653.872L495.053,636.937L475.498,636.937L475.498,617.382L495.053,617.382L485.275,600.447L502.21,590.669L511.988,607.605L521.765,590.669Z" style="fill:rgb(12,114,186);"/>
            </g>
            <g transform="matrix(-3.4333,-0.421268,0.743723,-1.94473,2563.27,1566.71)">
                <path d="M521.765,590.669L538.7,600.447L528.923,617.382L548.478,617.382L548.478,636.937L528.923,636.937L538.7,653.872L521.765,663.649L511.988,646.714L502.21,663.649L485.275,653.872L495.053,636.937L475.498,636.937L475.498,617.382L495.053,617.382L485.275,600.447L502.21,590.669L511.988,607.605L521.765,590.669Z" style="fill:rgb(12,114,186);"/>
            </g>
            <g transform="matrix(-2.82662,-0.346828,0.612304,-1.60109,1468.46,1402.18)">
                <path d="M521.765,590.669L538.7,600.447L528.923,617.382L548.478,617.382L548.478,636.937L528.923,636.937L538.7,653.872L521.765,663.649L511.988,646.714L502.21,663.649L485.275,653.872L495.053,636.937L475.498,636.937L475.498,617.382L495.053,617.382L485.275,600.447L502.21,590.669L511.988,607.605L521.765,590.669Z" style="fill:rgb(12,114,186);"/>
            </g>
            <g transform="matrix(-2.82662,-0.346828,0.612304,-1.60109,1508.67,1176.18)">
                <path d="M521.765,590.669L538.7,600.447L528.923,617.382L548.478,617.382L548.478,636.937L528.923,636.937L538.7,653.872L521.765,663.649L511.988,646.714L502.21,663.649L485.275,653.872L495.053,636.937L475.498,636.937L475.498,617.382L495.053,617.382L485.275,600.447L502.21,590.669L511.988,607.605L521.765,590.669Z" style="fill:rgb(12,114,186);"/>
            </g>
            <g transform="matrix(-2.82662,-0.346828,0.612304,-1.60109,1508.67,1901.16)">
                <path d="M521.765,590.669L538.7,600.447L528.923,617.382L548.478,617.382L548.478,636.937L528.923,636.937L538.7,653.872L521.765,663.649L511.988,646.714L502.21,663.649L485.275,653.872L495.053,636.937L475.498,636.937L475.498,617.382L495.053,617.382L485.275,600.447L502.21,590.669L511.988,607.605L521.765,590.669Z" style="fill:rgb(12,114,186);"/>
            </g>
            <g transform="matrix(-2.82662,-0.346828,0.612304,-1.60109,1234.09,1568.57)">
                <path d="M521.765,590.669L538.7,600.447L528.923,617.382L548.478,617.382L548.478,636.937L528.923,636.937L538.7,653.872L521.765,663.649L511.988,646.714L502.21,663.649L485.275,653.872L495.053,636.937L475.498,636.937L475.498,617.382L495.053,617.382L485.275,600.447L502.21,590.669L511.988,607.605L521.765,590.669Z" style="fill:rgb(12,114,186);"/>
            </g>
            <g transform="matrix(-2.82662,-0.346828,0.612304,-1.60109,1590.05,1678.47)">
                <path d="M521.765,590.669L538.7,600.447L528.923,617.382L548.478,617.382L548.478,636.937L528.923,636.937L538.7,653.872L521.765,663.649L511.988,646.714L502.21,663.649L485.275,653.872L495.053,636.937L475.498,636.937L475.498,617.382L495.053,617.382L485.275,600.447L502.21,590.669L511.988,607.605L521.765,590.669Z" style="fill:rgb(12,114,186);"/>
            </g>
        </g>
    </g>
</svg>
